<?xml version="1.0" encoding="UTF-8" standalone="no"?>
<!-- Created with Inkscape (http://www.inkscape.org/) -->

<svg
   xmlns:dc="http://purl.org/dc/elements/1.1/"
   xmlns:cc="http://creativecommons.org/ns#"
   xmlns:rdf="http://www.w3.org/1999/02/22-rdf-syntax-ns#"
   xmlns:svg="http://www.w3.org/2000/svg"
   xmlns="http://www.w3.org/2000/svg"
   xmlns:sodipodi="http://sodipodi.sourceforge.net/DTD/sodipodi-0.dtd"
   xmlns:inkscape="http://www.inkscape.org/namespaces/inkscape"
   width="4.6747327"
   height="0.88038051"
   id="svg4797"
   version="1.1"
   inkscape:version="0.48.5 r10040"
   sodipodi:docname="coords_logo.svg">
  <defs
     id="defs4799" />
  <sodipodi:namedview
     id="base"
     pagecolor="#ffffff"
     bordercolor="#666666"
     borderopacity="1.0"
     inkscape:pageopacity="0.0"
     inkscape:pageshadow="2"
     inkscape:zoom="256"
     inkscape:cx="1.8223161"
     inkscape:cy="-0.04214632"
     inkscape:document-units="px"
     inkscape:current-layer="svg4797"
     showgrid="false"
     fit-margin-top="0"
     fit-margin-left="0"
     fit-margin-right="0"
     fit-margin-bottom="0"
     inkscape:window-width="1920"
     inkscape:window-height="1027"
     inkscape:window-x="-8"
     inkscape:window-y="-8"
     inkscape:window-maximized="1" />
  <metadata
     id="metadata4802">
    <rdf:RDF>
      <cc:Work
         rdf:about="">
        <dc:format>image/svg+xml</dc:format>
        <dc:type
           rdf:resource="http://purl.org/dc/dcmitype/StillImage" />
        <dc:title></dc:title>
      </cc:Work>
    </rdf:RDF>
  </metadata>
  <g
     id="layer1"
     transform="translate(0,0.00390625)">
    <path
       style="fill:#ffffff;fill-opacity:1;stroke:#000000;stroke-width:0;stroke-linecap:butt;stroke-linejoin:miter;stroke-miterlimit:4;stroke-opacity:1;stroke-dasharray:none"
       d="m 1.1997768,0.08796979 c 0,0 -0.3794643,0.0390625 -0.3794643,0.32924108 0,0.29017857 0.16741072,0.36830357 0.3404018,0.37388393 C 1.3337054,0.7966748 1.5234375,0.66832694 1.5290179,0.47301444 1.5345982,0.27770194 1.4732143,0.20515729 1.3839286,0.15493408 1.2946429,0.10471086 1.1997768,0.08796979 1.1997768,0.08796979 z"
       id="background"
       inkscape:connector-curvature="0" />
    <path
       style="fill:#00b258;fill-opacity:1"
       d="m 0.73288806,0.87097072 c -5.0399e-4,-5.0284e-4 0.005791,-0.00463 0.0139868,-0.009171 0.040078,-0.0222056 0.0712464,-0.0468809 0.0890285,-0.070479 0.009779,-0.0129785 0.0205272,-0.0338772 0.0258888,-0.0503389 l 0.003867,-0.011872 -0.008268,-0.008721 C 0.80141977,0.66135146 0.7663052,0.59145689 0.75012275,0.50687238 0.74064265,0.45731861 0.74057532,0.38558892 0.74996886,0.33450693 0.77424177,0.20239259 0.85179652,0.09779558 0.96708583,0.04168549 1.025887,0.01306722 1.0805257,2.0450568e-4 1.1508838,-0.00158374 c 0.04896,-0.0012446 0.088143,0.0027647 0.1297885,0.01327941 0.079627,0.02010395 0.1528727,0.06468553 0.2041613,0.12426329 0.05581,0.0648287 0.08855,0.14278568 0.099056,0.23585599 0.00256,0.0226529 0.00217,0.0789706 -7.156e-4,0.10334314 -0.011398,0.0963159 -0.050324,0.18120825 -0.1124647,0.24527018 -0.032896,0.0339131 -0.063925,0.0566535 -0.1059408,0.0776396 -0.062813,0.0313748 -0.1226072,0.0448532 -0.1993159,0.0449291 -0.052284,5.771e-5 -0.092925,-0.005578 -0.1371177,-0.0189953 l -0.015274,-0.004637 -0.0148994,0.006807 c -0.0605817,0.0276763 -0.10800986,0.0392484 -0.18157881,0.0443033 -0.0225701,0.001551 -0.0822727,0.001903 -0.0836812,4.9515e-4 z M 1.028804,0.71587192 c 0,-3.5779e-4 -0.00468,-0.003811 -0.010404,-0.007672 l -0.010403,-0.00702 0,-0.0114265 0,-0.0114267 0.014356,-0.0143079 c 0.013524,-0.0134783 0.014539,-0.0148884 0.017497,-0.024321 l 0.00314,-0.0100133 0.014737,-0.007559 0.014736,-0.007559 0.00375,-0.0189257 c 0.0031,-0.0156873 0.00494,-0.0212979 0.010703,-0.0327895 l 0.00696,-0.0138639 -0.035654,-0.0213589 c -0.0349,-0.0209075 -0.035738,-0.0215152 -0.039643,-0.028753 -0.0022,-0.004067 -0.00656,-0.009653 -0.00971,-0.0124137 -0.0127603,-0.0111958 -0.0299957,-0.028562 -0.0299957,-0.0302235 0,-0.002366 -0.008464,-0.007181 -0.0277432,-0.0157829 l -0.0159524,-0.007117 -0.007439,0.003631 -0.007438,0.003632 -0.009208,-0.003007 c -0.005064,-0.001655 -0.00975,-0.003504 -0.0104131,-0.004111 -6.7328e-4,-6.148e-4 1.1541e-4,-0.004965 0.001735,-0.009808 0.001616,-0.004787 0.002939,-0.009654 0.002939,-0.0108149 0,-0.001161 -0.002932,-0.00509 -0.006521,-0.008731 l -0.00652,-0.00662 0.003055,-0.009478 c 0.001677,-0.005213 0.003055,-0.0102141 0.003055,-0.0111137 0,-0.001052 -0.002639,-0.001635 -0.007392,-0.001635 l -0.007393,0 -0.003124,-0.006673 -0.003124,-0.006673 0.0106408,-0.0176569 c 0.009452,-0.0156829 0.0109759,-0.0175505 0.0136386,-0.0167059 0.00165,5.2323e-4 0.006119,0.00201 0.009933,0.003303 l 0.006936,0.002353 3.9627e-4,0.0111067 c 3.4626e-4,0.0102202 7.2329e-4,0.0114171 0.004461,0.0149978 l 0.00406,0.003891 0.001262,-0.003336 c 6.9636e-4,-0.001834 0.002374,-0.006871 0.003728,-0.011193 0.002293,-0.007299 0.004525,-0.009907 0.0313542,-0.036717 l 0.0288847,-0.0288597 0.0108909,0.00357 0.01089,0.00357 0.00683,-0.003435 c 0.00375,-0.001889 0.0071,-0.003681 0.00742,-0.00398 3.463e-4,-3.0009e-4 -0.00132,-0.002565 -0.00366,-0.005033 -0.00234,-0.002468 -0.00559,-0.00714 -0.00722,-0.010383 l -0.00295,-0.005895 0.010495,0 c 0.010322,0 0.010667,1.1926e-4 0.020948,0.007054 0.00575,0.00388 0.010679,0.00683 0.010952,0.006556 3.078e-4,-2.7315e-4 -0.0026,-0.0144646 -0.0064,-0.0315349 -0.0038,-0.0170702 -0.0067,-0.031624 -0.00647,-0.0323413 2.308e-4,-7.179e-4 0.011028,-0.00584 0.023976,-0.0113827 l 0.02354,-0.0100787 6.963e-4,0.0178241 6.964e-4,0.0178241 0.03644,-0.0218413 0.036439,-0.0218413 -3.462e-4,-0.0256624 -3.463e-4,-0.0256625 -0.021094,-3.8089e-4 c -0.019404,-3.501e-4 -0.022405,-5.771e-5 -0.037453,0.003683 -0.009,0.002236 -0.026971,0.005479 -0.03994,0.007207 -0.0226,0.003012 -0.024128,0.003418 -0.03676,0.009766 -0.0619424,0.0311298 -0.11609783,0.0861643 -0.15076803,0.15321786 l -0.010143,0.0196177 0,0.023482 0,0.023482 0.007424,0.022181 c 0.004085,0.0121995 0.008872,0.0281845 0.0106404,0.0355224 l 0.003216,0.0133415 0.008432,0.005018 c 0.0150552,0.00896 0.0145558,0.007398 0.006281,0.0196613 l -0.007239,0.0107271 0.003809,0.0193111 c 0.002097,0.010621 0.003451,0.0210855 0.003016,0.0232546 -8.5025e-4,0.004246 0.003339,0.0212031 0.006976,0.0282332 0.00122,0.002369 0.00828,0.0118144 0.0156796,0.0209898 l 0.0134528,0.016683 0.007223,0.0325639 0.007223,0.0325638 0.0218845,0.0291673 0.0218841,0.0291673 0.0144627,0.003663 c 0.00795,0.002014 0.014617,0.003728 0.014808,0.003808 1.924e-4,8.079e-5 3.463e-4,-1.385e-4 3.463e-4,-5.0746e-4 z m 0.3336112,-0.0742146 0.012485,-0.004978 0.029197,-0.0435456 0.029197,-0.0435457 0.00357,-0.036185 0.00357,-0.0361851 0.00692,-0.0138612 c 0.00678,-0.0135797 0.00693,-0.0141855 0.00778,-0.0298137 4.963e-4,-0.008774 5.078e-4,-0.0172892 1.154e-4,-0.0189233 l -7.848e-4,-0.002971 -0.00577,0.003301 c -0.00317,0.001815 -0.0065,0.003309 -0.00739,0.003318 -8.888e-4,9.35e-6 -0.00803,-0.008254 -0.015869,-0.0183631 -0.00784,-0.010109 -0.016431,-0.0211888 -0.019096,-0.0246219 -0.00267,-0.003433 0.00367,0.002154 0.014086,0.012417 0.010413,0.0102626 0.019158,0.0183774 0.019432,0.018033 3.078e-4,-3.4241e-4 0.00256,-0.004059 0.00509,-0.008256 0.00252,-0.004196 0.00607,-0.009394 0.00787,-0.0115504 0.00274,-0.003277 0.00328,-0.005466 0.00328,-0.0133213 0,-0.00517 -3.962e-4,-0.0132371 -8.964e-4,-0.0179266 l -8.887e-4,-0.008526 -0.010786,0 -0.010786,0 -0.00303,-0.009105 c -0.00167,-0.005008 -0.00275,-0.009384 -0.00241,-0.009724 5.156e-4,-5.1515e-4 0.019718,0.00297 0.031225,0.005666 0.00426,9.9837e-4 0.00409,-0.001641 -0.0011,-0.0175763 -0.00865,-0.0265594 -0.026881,-0.0592467 -0.04551,-0.0815984 -0.026118,-0.0313386 -0.054926,-0.0539586 -0.091066,-0.0715044 -0.016612,-0.008065 -0.041085,-0.0172958 -0.045856,-0.0172958 -0.00157,0 -0.002,0.002263 -0.002,0.0104036 0,0.005722 -4.963e-4,0.0103978 -0.00104,0.0103906 -5.732e-4,-9.16e-6 -0.00941,-0.001567 -0.019635,-0.003468 -0.010227,-0.001899 -0.019434,-0.003455 -0.020461,-0.003455 -0.0015,0 -0.00187,0.005711 -0.00187,0.0295245 l 0,0.0295245 0.00761,0.007514 0.00761,0.007514 0.0041,-0.003927 0.0041,-0.003927 0.00622,0.003648 c 0.00343,0.002007 0.00658,0.003648 0.00702,0.003648 4.463e-4,0 7.926e-4,-0.003277 7.926e-4,-0.007283 0,-0.006423 -8.195e-4,-0.008511 -0.00693,-0.0176862 l -0.00693,-0.0104037 0.00918,-4.1551e-4 c 0.00505,-2.2699e-4 0.00951,-8.079e-5 0.00992,3.2702e-4 6.886e-4,6.8636e-4 0.0072,0.037081 0.00724,0.0404251 0,8.2332e-4 -0.0031,0.002959 -0.00692,0.004745 l -0.00694,0.003248 -0.00696,-0.003261 c -0.00421,-0.001973 -0.00743,-0.002752 -0.00814,-0.001971 -0.00192,0.002089 -0.026582,0.0394058 -0.027318,0.0413244 -3.963e-4,0.001066 0.00204,0.003025 0.00623,0.004989 l 0.00691,0.003234 -0.00341,0.006735 -0.00341,0.006735 -0.011074,0 -0.011074,0 0,0.0150875 0,0.0150874 0.014778,0.003703 c 0.00813,0.002037 0.015217,0.003206 0.015753,0.002598 0.00137,-0.001557 0.013857,-0.0316826 0.013857,-0.0334398 0,-0.002515 0.00667,-0.006829 0.017582,-0.0113714 l 0.01055,-0.004392 0.010812,0.0107492 0.010812,0.0107491 -0.00338,0.006665 c -0.00186,0.003666 -0.00338,0.006998 -0.00338,0.007405 0,4.055e-4 0.00334,7.3983e-4 0.00742,7.3983e-4 l 0.00742,0 0.00437,-0.009474 c 0.0024,-0.005211 0.00437,-0.0101513 0.00437,-0.0109792 0,-8.2678e-4 -0.00312,-0.003796 -0.00694,-0.006597 -0.00697,-0.005116 -0.00964,-0.008305 -0.00382,-0.00455 0.00172,0.001106 0.00598,0.00367 0.00947,0.005698 0.00476,0.002766 0.00716,0.005422 0.0096,0.0106332 0.00179,0.00382 0.00358,0.006946 0.00398,0.006946 3.963e-4,0 0.00243,-0.001635 0.00452,-0.003635 l 0.00379,-0.003635 -0.00357,-0.007286 -0.00357,-0.007287 0.00339,-0.0137008 0.00339,-0.013701 0.014101,-3.955e-4 0.014101,-3.955e-4 0.00343,0.006774 0.00343,0.006774 -0.01691,0.006647 c -0.0093,0.003655 -0.017447,0.007128 -0.018104,0.007716 -6.579e-4,5.8902e-4 5.925e-4,0.004385 0.00277,0.008437 l 0.00397,0.007368 0.017551,0.003506 0.017551,0.003506 -0.00336,0.006589 c -0.00185,0.003624 -0.0035,0.006595 -0.00368,0.006602 -1.924e-4,9.31e-6 -0.00937,0.001561 -0.020435,0.003455 -0.011062,0.001893 -0.020571,0.003447 -0.02113,0.003454 -5.579e-4,9.31e-6 -0.0026,0.003135 -0.00453,0.006949 -0.00194,0.003815 -0.00383,0.006936 -0.00421,0.006936 -3.962e-4,0 -0.00679,-0.003059 -0.01424,-0.006797 -0.012808,-0.006427 -0.013724,-0.007181 -0.016858,-0.0138714 -0.00182,-0.003891 -0.00367,-0.007077 -0.00411,-0.00708 -0.00426,-1.989e-5 -0.040639,0.0166922 -0.054902,0.0252358 l -0.018033,0.010802 -0.018138,0.0254853 -0.018138,0.0254854 -0.00311,0.019267 c -0.00171,0.010597 -0.00341,0.0203191 -0.00377,0.021605 -4.925e-4,0.001686 0.00651,0.008504 0.025131,0.0244941 l 0.025796,0.0221563 0.03267,-0.0109114 0.03267,-0.0109112 0.013731,0.00689 0.013731,0.00689 0,0.0141767 0,0.0141767 0.011048,0.0111264 0.011048,0.0111262 -0.00349,0.0137086 c -0.00192,0.00754 -0.00526,0.0172164 -0.00743,0.0215034 l -0.00394,0.007795 0.00675,0.0298215 c 0.00371,0.0164016 0.00709,0.0312168 0.0075,0.0329226 8.426e-4,0.003514 -0.00222,0.004315 0.024975,-0.006529 z M 1.202245,0.26498043 l 0.00689,-0.003491 0,-0.007606 0,-0.007606 -0.00763,0 -0.00763,0 0,0.0110972 c 0,0.006104 3.463e-4,0.0110974 7.426e-4,0.0110974 3.962e-4,0 0.00384,-0.001571 0.00763,-0.003491 z m 0.022584,-0.003744 0.00623,-0.007235 -0.0046,-0.009064 c -0.00409,-0.008051 -0.016367,-0.022359 -0.017823,-0.020768 -3.463e-4,3.3472e-4 -0.0022,0.003872 -0.0042,0.007862 l -0.00364,0.007255 0.00695,0.003519 0.00694,0.003519 0,0.0110739 c 0,0.0135491 0.00134,0.0140568 0.010145,0.003838 z m -0.05865,-0.0545165 c 0.00589,-0.002983 0.00689,-0.00408 0.00689,-0.007534 l 0,-0.004043 -0.010751,0.00357 c -0.00591,0.001963 -0.011014,0.003795 -0.011334,0.004071 -8.041e-4,6.9367e-4 0.00564,0.007427 0.00711,0.007427 6.579e-4,0 0.00429,-0.001571 0.00808,-0.003491 z M 0.37469843,0.84269682 C 0.3163805,0.83941663 0.26817169,0.8271599 0.21939849,0.8032124 0.1597117,0.77390623 0.10986357,0.72899213 0.07367176,0.67191103 0.02804757,0.59995377 0.00422787,0.50577298 0.00689442,0.40788129 0.00885654,0.33579635 0.02281218,0.27738454 0.0521312,0.21853442 0.11272326,0.09691186 0.22479931,0.02001935 0.36863818,0.00138636 c 0.0235808,-0.0030547 0.0763248,-0.0041944 0.0997547,-0.002155604 0.0692908,0.006029204 0.13383169,0.027590694 0.18518526,0.061865554 0.0188629,0.0125895 0.0345971,0.0252792 0.0467207,0.0376802 l 0.009267,0.009479 -0.0323557,0.0441929 c -0.017796,0.024306 -0.0353704,0.0472535 -0.0390557,0.0509948 -0.0130446,0.0132439 -0.0308637,0.0158903 -0.0490787,0.007289 -0.00496,-0.002342 -0.018068,-0.0100996 -0.0291301,-0.0172395 -0.0389238,-0.0251217 -0.0703846,-0.0349749 -0.11790854,-0.0369284 -0.12776414,-0.005251 -0.21866204,0.0748767 -0.23946162,0.21108973 -0.003524,0.023101 -0.003555,0.0827358 -3.001e-5,0.10681105 0.0178499,0.12253945 0.0903835,0.20100915 0.19449377,0.21041231 0.0203129,0.001836 0.056347,1.1926e-4 0.0776125,-0.003703 0.0322614,-0.005793 0.059187,-0.0195358 0.0945193,-0.0482439 0.0170704,-0.01387 0.0360806,-0.0160161 0.0500474,-0.00565 0.005007,0.003716 0.0778714,0.0829446 0.079009,0.08591 0.001462,0.003823 -0.0299053,0.0375766 -0.0506792,0.0545274 -0.0434243,0.0354324 -0.0993865,0.0593258 -0.1624932,0.0693773 -0.0333956,0.005319 -0.0764729,0.007506 -0.11034055,0.005601 z m 1.65493927,-1.9e-7 c -0.026014,-0.001364 -0.043185,-0.003475 -0.067277,-0.008276 C 1.8361758,0.80927772 1.7356328,0.73354193 1.6797013,0.62150335 1.624739,0.51140456 1.619095,0.36901066 1.6650766,0.25251973 c 0.021083,-0.0534107 0.049218,-0.0966243 0.088517,-0.13595401 0.063369,-0.06342 0.1443159,-0.10215472 0.2406716,-0.11516643 0.022808,-0.0030801 0.076668,-0.0041964 0.1020277,-0.002116004 0.1314572,0.010788144 0.2436648,0.074675214 0.3107707,0.176942494 0.058027,0.0884319 0.08174,0.1995216 0.066322,0.31070105 -0.010486,0.0756169 -0.03953,0.14540006 -0.085166,0.2046276 -0.014439,0.0187381 -0.050317,0.0540036 -0.069614,0.0684253 -0.056277,0.0420563 -0.121343,0.0686305 -0.1926248,0.0786703 -0.016775,0.002363 -0.065985,0.005857 -0.074149,0.005265 -0.00152,-1.1927e-4 -0.011513,-6.5827e-4 -0.022194,-0.001219 z M 2.0830427,0.68311975 C 2.1753447,0.67449975 2.239244,0.62297005 2.26868,0.53341893 2.291697,0.46339733 2.290257,0.36474906 2.26524,0.29779066 2.2528634,0.26464987 2.2366917,0.23884624 2.2142155,0.21637032 2.175705,0.17786006 2.1293709,0.15902267 2.0670938,0.15655687 c -0.055351,-0.002192 -0.1039745,0.0104673 -0.1433299,0.0373147 -0.014516,0.009902 -0.039384,0.0350831 -0.049701,0.0503253 -0.034681,0.0512377 -0.051126,0.12240168 -0.046326,0.20048458 0.00381,0.0619151 0.017929,0.10942855 0.044325,0.1491038 0.043901,0.0659883 0.1192678,0.0978999 0.2109847,0.0893345 z M 4.3316509,0.842636 C 4.2613169,0.83817 4.1828414,0.811761 4.1235505,0.7726038 4.1081355,0.7624232 4.0905445,0.7484083 4.0824835,0.7398844 l -0.00569,-0.006021 0.028921,-0.0463848 c 0.015906,-0.0255117 0.030641,-0.0482106 0.032744,-0.0504417 0.00856,-0.009082 0.022191,-0.0148396 0.035135,-0.0148396 0.013481,0 0.023582,0.004248 0.051224,0.0215464 0.053813,0.0336743 0.083743,0.044963 0.1254088,0.0472999 0.052386,0.002938 0.092869,-0.0141435 0.1082653,-0.0456811 0.00653,-0.0133707 0.00905,-0.0237419 0.01003,-0.0412568 C 4.4708516,0.5626651 4.4552716,0.5392044 4.4113896,0.5180414 4.3922186,0.5087954 4.3767826,0.5032763 4.3419226,0.493203 4.2861466,0.477085 4.2470286,0.4626065 4.2180746,0.4473644 4.1611406,0.4173913 4.1240366,0.3652401 4.1121003,0.29841153 c -0.00249,-0.0139398 -0.003,-0.0222484 -0.00305,-0.0493594 -1.154e-4,-0.0379532 0.00156,-0.0494843 0.011073,-0.0785893 0.020659,-0.0631863 0.064998,-0.11269424 0.1282773,-0.14323477 0.045027,-0.02173158 0.089238,-0.03027006 0.1491189,-0.02879982 0.041431,0.001018396 0.071056,0.0053699 0.1061178,0.01559163 0.047449,0.0138328 0.095656,0.0394211 0.1257966,0.06677176 l 0.00581,0.00527 -0.023883,0.0451772 c -0.013136,0.0248472 -0.026202,0.0483354 -0.029036,0.0521957 -0.010311,0.0140462 -0.021103,0.0192212 -0.037845,0.0181467 -0.011231,-7.1944e-4 -0.016098,-0.002823 -0.055404,-0.0239289 -0.02224,-0.0119418 -0.042283,-0.0201855 -0.059898,-0.0246367 -0.010796,-0.002728 -0.015659,-0.003082 -0.041365,-0.003013 -0.02542,5.771e-5 -0.030544,4.6475e-4 -0.040228,0.003093 -0.032972,0.008958 -0.053676,0.0287294 -0.061154,0.0583979 -0.00161,0.006396 -0.0021,0.0132469 -0.00174,0.0242753 4.463e-4,0.0138468 9.542e-4,0.0163022 0.00499,0.0248622 0.00809,0.017174 0.027199,0.0325905 0.057217,0.0461608 0.00901,0.004073 0.041563,0.0157736 0.072341,0.0260015 0.05956,0.0197922 0.082109,0.0286417 0.1122088,0.0440368 0.06105,0.0312254 0.099512,0.0819133 0.1110769,0.14638546 0.00397,0.0221182 0.00432,0.0657737 7.233e-4,0.0892715 -0.00673,0.0439152 -0.020869,0.0811272 -0.044065,0.11594712 -0.014056,0.0210994 -0.043356,0.0504178 -0.064214,0.0642548 -0.04634,0.0307426 -0.095878,0.0464335 -0.1579477,0.050029 -0.013139,7.6214e-4 -0.024825,0.0013 -0.02597,0.001201 -0.00114,-1.0003e-4 -0.00987,-6.7789e-4 -0.019393,-0.001283 z m -1.763103,-0.42164085 0,-0.41343662 0.1619507,5.1938e-4 c 0.1713389,5.4901e-4 0.1678879,4.3013e-4 0.2070328,0.0071924 0.04152,0.0071737 0.080889,0.02061752 0.1127028,0.03848617 0.036942,0.0207491 0.069062,0.0541641 0.085494,0.0889431 0.00822,0.0174014 0.015298,0.0401577 0.018982,0.0610449 0.00892,0.0505476 0.00295,0.10702165 -0.015934,0.1508245 -0.02497,0.0579187 -0.073247,0.10416461 -0.1367417,0.13098947 -0.00505,0.002133 -0.00531,0.002489 -0.00293,0.003948 0.024324,0.0149298 0.036919,0.0252036 0.048017,0.0391689 0.0068,0.008562 0.1844919,0.30231208 0.1844919,0.30499822 0,4.7975e-4 -0.042602,6.7597e-4 -0.094673,4.4513e-4 l -0.094675,-4.2503e-4 -0.00902,-0.003214 c -0.00496,-0.001768 -0.011965,-0.005089 -0.015567,-0.00738 -0.01501,-0.009543 -0.017258,-0.0131244 -0.091244,-0.14536262 -0.050494,-0.0902498 -0.071914,-0.12727523 -0.076723,-0.13261884 -0.012781,-0.0142014 -0.024262,-0.0171742 -0.0665,-0.0172188 l -0.026009,-1.989e-5 0,0.15328069 0,0.15328083 -0.094326,0 -0.094327,0 0,-0.41343681 z m 0.2873807,-0.026311 c 0.061161,-0.0058 0.1005515,-0.0361924 0.114491,-0.0883378 0.00327,-0.0122579 0.00364,-0.0160614 0.00366,-0.0385679 0,-0.0213404 -3.963e-4,-0.0265385 -0.00296,-0.0357702 -0.00502,-0.0181714 -0.013065,-0.0319423 -0.026574,-0.0455041 -0.013491,-0.0135423 -0.02377,-0.0198613 -0.042389,-0.0260588 -0.023825,-0.00793 -0.032385,-0.008823 -0.091205,-0.009518 l -0.053753,-6.3441e-4 0,0.12289889 0,0.12289867 0.041961,-1.2e-6 c 0.023079,-6.1e-7 0.048624,-6.3249e-4 0.056767,-0.001406 z m 0.4505864,0.0263893 0,-0.41348379 0.1827584,4.6975e-4 c 0.1639113,4.2051e-4 0.1844024,7.1598e-4 0.19871,0.0028485 0.054895,0.0081828 0.093192,0.01979913 0.1380218,0.04186621 0.039364,0.0193763 0.07136,0.0421448 0.1013021,0.0720869 0.061454,0.0614541 0.099289,0.1404002 0.1123692,0.23446907 0.00304,0.02186 0.00419,0.0763053 0.00213,0.10072418 -0.011216,0.13303831 -0.076046,0.2441879 -0.1808301,0.31003108 -0.019167,0.0120442 -0.051742,0.0279536 -0.07466,0.0364639 -0.020672,0.007676 -0.054125,0.0167651 -0.074755,0.0203108 -0.039601,0.006806 -0.03419,0.006633 -0.2250662,0.00718 l -0.1799838,5.1708e-4 0,-0.4134838 z m 0.3337505,0.26494277 c 0.057934,-0.003957 0.1028422,-0.0230501 0.1385766,-0.0589179 0.039472,-0.0396191 0.062089,-0.0925796 0.069567,-0.16289363 0.00261,-0.0245619 0.00185,-0.0792111 -0.00142,-0.10071229 -0.00717,-0.0473495 -0.021143,-0.0861737 -0.042674,-0.11860186 -0.012047,-0.0181435 -0.03657,-0.0426001 -0.054696,-0.0545472 -0.029346,-0.0193435 -0.061045,-0.0302901 -0.098897,-0.0341524 -0.00804,-8.1947e-4 -0.045156,-0.001466 -0.08427,-0.001466 l -0.069904,0 0,0.26633403 0,0.2663341 0.062075,-1.846e-5 c 0.034141,-9.16e-6 0.070877,-6.2211e-4 0.081634,-0.001357 z"
       id="foreground"
       inkscape:connector-curvature="0" />
  </g>
</svg>
